<svg xmlns="http://www.w3.org/2000/svg" width="430" height="430" fill="none" viewBox="0 0 430 430"><path fill="#f4c89c" d="M389.26 108.93a3.4 3.4 0 0 0-2.77-1.38h-39.31l-248.24-.09a1.998 1.998 0 0 0-1.97 2.33l28.09 166.6a2 2 0 0 0 2.56 1.58c1.64-.51 6.63-.89 12.94-1.38 6.66-.51 14.95-1.14 24.84-2.27l145.7-16.6c21-2.39 42.88-20.85 48.76-41.15l18.76-64.7c5.69-19.61 10.71-36.93 11.2-38.64a4.84 4.84 0 0 0-.56-4.3"/><path stroke="#121331" stroke-linecap="round" stroke-linejoin="round" stroke-width="7" d="M127 276.05s-7.09 1.55-10.89 6.27c-6 7.38-5.84 19.63 15 19.63h175.37"/><path fill="#f4c89c" d="M154 253.1a4.01 4.01 0 0 1-3.866-2.195 4 4 0 0 1-.414-1.505l-10.4-141.94H98.94a1.998 1.998 0 0 0-1.97 2.33l28.09 166.6a2 2 0 0 0 2.56 1.58c1.64-.51 6.63-.89 12.94-1.38 6.66-.51 14.95-1.14 24.84-2.27l145.7-16.6c12.66-1.44 25.63-8.73 35.23-18.73z" opacity=".5" style="mix-blend-mode:multiply"/><path stroke="#121331" stroke-linecap="round" stroke-linejoin="round" stroke-width="7" d="M41.93 72.55h25.44c14 0 28.18 16.35 31.57 36.49l28.09 167M98.94 109.45l248.24.09h39.31c1.28 0 1.91 1.39 1.41 3.11s-5.52 19-11.2 38.65L357.94 216c-5.68 19.61-26.77 37.41-47.06 39.73l-145.7 16.59c-20.29 2.32-34.55 2.61-38.15 3.73z"/><path fill="#646e78" d="M144.14 302a27.75 27.75 0 0 1 25.638 17.131 27.75 27.75 0 1 1-53.388 10.619A27.76 27.76 0 0 1 144.14 302m164.19 0a27.752 27.752 0 0 1 19.622 47.372 27.75 27.75 0 0 1-47.372-19.622A27.76 27.76 0 0 1 308.33 302"/><path fill="#646e78" d="M150.54 349.92a27.74 27.74 0 0 1-24.049-13.895 27.74 27.74 0 0 1 .049-27.775 27.76 27.76 0 0 0-10.166 21.213 27.752 27.752 0 0 0 51.766 14.157 27.6 27.6 0 0 1-17.6 6.3m164.19 0a27.74 27.74 0 0 1-24.049-13.895 27.74 27.74 0 0 1 .049-27.775 27.76 27.76 0 0 0-10.166 21.213 27.752 27.752 0 0 0 51.766 14.157 27.6 27.6 0 0 1-17.6 6.3" opacity=".5" style="mix-blend-mode:multiply"/><path stroke="#121331" stroke-linecap="round" stroke-linejoin="round" stroke-width="7" d="M144.14 302a27.75 27.75 0 0 1 25.638 17.131 27.75 27.75 0 1 1-53.388 10.619A27.76 27.76 0 0 1 144.14 302m164.19 0a27.752 27.752 0 0 1 19.622 47.372 27.75 27.75 0 0 1-47.372-19.622A27.76 27.76 0 0 1 308.33 302"/></svg>